HIERARCHY
ROOT Hips
{
	OFFSET -0.001795 -0.223333 0.028219
	CHANNELS 6 Xposition Yposition Zposition Zrotation Yrotation Xrotation 
	JOINT LeftUpLeg
	{
		OFFSET 0.069520 -0.091406 -0.006815
		CHANNELS 3 Zrotation Yrotation Xrotation
		JOINT LeftLeg
		{
			OFFSET 0.034277 -0.375199 -0.004496
			CHANNELS 3 Zrotation Yrotation Xrotation
			JOINT LeftFoot
			{
				OFFSET -0.013596 -0.397961 -0.043693
				CHANNELS 3 Zrotation Yrotation Xrotation
				JOINT LeftToe
				{
					OFFSET 0.026358 -0.055791 0.119288
					CHANNELS 3 Zrotation Yrotation Xrotation
					End Site
					{
						OFFSET 0.000000 0.000000 0.000000
					}
				}
			}
		}
	}
	JOINT RightUpLeg
	{
		OFFSET -0.067670 -0.090522 -0.004320
		CHANNELS 3 Zrotation Yrotation Xrotation
		JOINT RightLeg
		{
			OFFSET -0.038290 -0.382569 -0.008850
			CHANNELS 3 Zrotation Yrotation Xrotation
			JOINT RightFoot
			{
				OFFSET 0.015774 -0.398415 -0.042312
				CHANNELS 3 Zrotation Yrotation Xrotation
				JOINT RightToe
				{
					OFFSET -0.025372 -0.048144 0.123348
					CHANNELS 3 Zrotation Yrotation Xrotation
					End Site
					{
						OFFSET 0.000000 0.000000 0.000000
					}
				}
			}
		}
	}
	JOINT Spine
	{
		OFFSET -0.002533 0.108963 -0.026696
		CHANNELS 3 Zrotation Yrotation Xrotation
		JOINT Spine1
		{
			OFFSET 0.005487 0.135180 0.001092
			CHANNELS 3 Zrotation Yrotation Xrotation
			JOINT Spine2
			{
				OFFSET 0.001457 0.052922 0.025425
				CHANNELS 3 Zrotation Yrotation Xrotation
				JOINT Neck
				{
					OFFSET -0.002778 0.213870 -0.042857
					CHANNELS 3 Zrotation Yrotation Xrotation
					JOINT Head
					{
						OFFSET 0.005152 0.064970 0.051349
						CHANNELS 3 Zrotation Yrotation Xrotation
						End Site
						{
							OFFSET 0.000000 0.000000 0.000000
						}
					}
				}
				JOINT LeftShoulder
				{
					OFFSET 0.078845 0.121749 -0.034090
					CHANNELS 3 Zrotation Yrotation Xrotation
					JOINT LeftArm
					{
						OFFSET 0.090977 0.030469 -0.008868
						CHANNELS 3 Zrotation Yrotation Xrotation
						JOINT LeftForeArm
						{
							OFFSET 0.259612 -0.012772 -0.027456
							CHANNELS 3 Zrotation Yrotation Xrotation
							JOINT LeftHand
							{
								OFFSET 0.249234 0.008986 -0.001171
								CHANNELS 3 Zrotation Yrotation Xrotation
								End Site
								{
									OFFSET 0.000000 0.000000 0.000000
								}
							}
						}
					}
				}
				JOINT RightShoulder
				{
					OFFSET -0.081759 0.118833 -0.038615
					CHANNELS 3 Zrotation Yrotation Xrotation
					JOINT RightArm
					{
						OFFSET -0.096012 0.032551 -0.009143
						CHANNELS 3 Zrotation Yrotation Xrotation
						JOINT RightForeArm
						{
							OFFSET -0.253742 -0.013329 -0.021401
							CHANNELS 3 Zrotation Yrotation Xrotation
							JOINT RightHand
							{
								OFFSET -0.255298 0.007772 -0.005559
								CHANNELS 3 Zrotation Yrotation Xrotation
								End Site
								{
									OFFSET 0.000000 0.000000 0.000000
								}
							}
						}
					}
				}
			}
		}
	}
}
MOTION
Frames: 12
Frame Time: 0.050000
-0.576271 0.954763 2.247290 -4.695199 -15.566745 -10.113422 -3.585996 -0.359560 -1.982985 -1.222283 0.663721 23.045746 -3.374326 -9.180365 -4.022851 0.000000 0.000000 0.000000 -1.234135 0.398712 -4.235071 2.542614 1.554492 27.340873 0.584566 0.518582 1.281607 0.000000 0.000000 0.000000 2.312092 -0.496172 12.569672 -8.931171 4.879644 2.511452 -1.269562 8.919224 -0.656855 2.789502 -0.198998 -16.535588 0.000000 0.000000 0.000000 -24.899545 -6.646877 0.414284 -49.080377 -15.168748 0.919603 1.230927 -80.596436 1.112335 0.000000 0.000000 0.000000 19.800557 11.710075 4.928918 55.914700 13.677631 1.246582 61.291709 66.388565 45.087641 0.000000 0.000000 0.000000 
-0.626258 0.939358 2.315499 -5.802566 -11.322922 -11.560505 -2.762074 -0.033364 0.320986 0.349165 -0.242642 22.565253 -2.706313 -5.708003 0.252836 0.000000 0.000000 0.000000 -0.909907 0.274559 -2.858697 -0.619240 1.867269 23.661511 1.433096 4.200841 -0.708865 0.000000 0.000000 0.000000 1.763232 -0.510245 12.618724 -7.963734 4.401609 3.469517 -3.357126 8.344119 -0.340976 5.537768 -1.619461 -16.689735 0.000000 0.000000 0.000000 -24.658293 -7.199030 0.075081 -47.835371 -18.948694 2.585788 7.834402 -82.092600 -5.447996 0.000000 0.000000 0.000000 22.662540 10.314291 4.932595 54.696404 11.894988 0.096496 44.460268 59.105271 28.877018 0.000000 0.000000 0.000000 
-0.676066 0.927436 2.376815 -7.091022 -4.923442 -12.586838 -0.261822 0.213605 2.190858 5.353366 -2.738292 28.068794 -5.789783 -15.415327 -3.623477 0.000000 0.000000 0.000000 -1.258108 0.145618 -1.604808 -3.252032 1.683283 16.909471 4.973393 10.891993 2.308293 0.000000 0.000000 0.000000 1.908123 -0.682114 14.094220 -7.883872 4.111693 1.554250 -4.722873 6.685551 1.606947 6.689916 -2.211534 -16.608059 0.000000 0.000000 0.000000 -25.556008 -9.073581 0.618813 -45.864950 -22.713928 3.913746 1.779240 -81.312717 -0.536328 0.000000 0.000000 0.000000 25.135816 7.633496 4.085593 54.009400 5.495842 -3.245007 37.437234 52.170356 21.572675 0.000000 0.000000 0.000000 
-0.720297 0.924546 2.426372 -8.136242 1.088851 -11.625153 2.063410 0.045545 0.371928 9.042312 -5.530131 33.544617 -7.631398 -19.735288 -3.152608 0.000000 0.000000 0.000000 -0.595219 0.200001 -2.141478 -4.812261 1.841469 16.118239 7.917181 15.908234 5.209116 0.000000 0.000000 0.000000 1.665257 -0.775024 13.964001 -7.219713 3.746503 2.824061 -6.258408 6.606784 0.451437 9.386556 -3.579598 -16.332363 0.000000 0.000000 0.000000 -27.554476 -11.563591 0.696013 -44.673679 -25.359344 5.332569 -19.592616 -76.781938 15.541668 0.000000 0.000000 0.000000 27.509435 4.203300 3.119439 52.522890 2.008306 -4.875014 29.245656 45.476894 15.004712 0.000000 0.000000 0.000000 
-0.754960 0.925774 2.464880 -8.684452 7.409439 -11.665162 3.926180 -0.125163 -1.894719 10.885327 -8.409255 38.736182 -8.907242 -21.241311 -1.439531 0.000000 0.000000 0.000000 1.297536 0.119760 -0.927301 -4.330891 1.601505 18.000578 7.498992 16.343907 3.819986 0.000000 0.000000 0.000000 3.150635 -1.161308 15.269359 -8.039769 4.075379 3.579784 -6.557194 5.421879 -1.101312 8.960233 -3.700154 -13.582106 0.000000 0.000000 0.000000 -26.899474 -13.455219 1.108674 -48.052613 -25.584595 6.216940 -20.744511 -75.241561 15.095274 0.000000 0.000000 0.000000 26.960351 2.553404 2.590546 53.381544 -1.358821 -6.298437 20.539228 40.797458 9.934135 0.000000 0.000000 0.000000 
-0.779467 0.931261 2.495885 -8.639351 13.429039 -10.499953 3.582037 -0.379278 -5.315197 11.410812 -10.994405 42.939264 -7.569617 -16.564696 0.118397 0.000000 0.000000 0.000000 0.939876 0.104804 -0.875319 -2.842202 0.915931 17.772696 8.913273 18.277289 5.876912 0.000000 0.000000 0.000000 3.974942 -1.260342 14.037776 -7.006273 3.336960 5.978071 -7.627234 4.785010 -2.105428 8.280804 -3.400964 -12.039125 0.000000 0.000000 0.000000 -28.516760 -14.979593 0.899761 -49.370524 -24.682470 6.547050 -25.059329 -69.870741 16.056324 0.000000 0.000000 0.000000 26.737051 2.380965 3.222471 53.991991 -2.103442 -6.663462 12.502643 37.897760 6.447273 0.000000 0.000000 0.000000 
-0.795909 0.933836 2.523381 -8.283722 16.529084 -9.072331 3.319305 -0.633693 -8.430325 9.306615 -11.190725 45.471072 -4.942967 -9.669437 1.217195 0.000000 0.000000 0.000000 1.631822 -0.058325 0.599506 -2.072844 0.573462 16.483733 7.909407 17.655179 3.701060 0.000000 0.000000 0.000000 5.414247 -1.265020 12.219742 -7.364348 3.386151 5.593565 -7.610218 6.268269 -0.301404 8.257157 -2.833659 -13.457987 0.000000 0.000000 0.000000 -29.451090 -14.407822 -0.740566 -48.800874 -20.630272 5.073644 -30.440444 -66.307997 18.082287 0.000000 0.000000 0.000000 26.454173 1.945222 4.038349 54.719430 1.134010 -5.652279 5.975014 32.111309 3.629513 0.000000 0.000000 0.000000 
-0.807342 0.937826 2.549025 -7.362437 19.279549 -8.344408 3.005970 -0.870806 -10.756623 6.638146 -10.220053 45.725730 -2.839049 -5.178402 1.172527 0.000000 0.000000 0.000000 1.567478 -0.381529 2.987923 -1.523331 0.368491 14.148604 7.289255 16.563108 3.400304 0.000000 0.000000 0.000000 5.927635 -1.363756 12.123790 -7.993979 3.587091 5.673455 -6.531474 7.825513 -0.970203 6.625803 -1.417914 -14.165921 0.000000 0.000000 0.000000 -30.880268 -14.263835 -2.159463 -46.824329 -14.363087 2.962836 -26.335753 -60.613443 13.558903 0.000000 0.000000 0.000000 26.861960 -0.069140 3.542809 52.794591 3.439613 -4.696821 3.862489 28.472251 2.693545 0.000000 0.000000 0.000000 
-0.813980 0.939656 2.573183 -6.475523 20.866937 -7.847518 2.963701 -1.254015 -14.256379 3.228447 -8.382286 45.245357 -1.079220 -2.369073 -0.027631 0.000000 0.000000 0.000000 2.755936 -0.651792 4.676379 -1.851600 0.425016 13.403999 4.870054 11.512375 2.370770 0.000000 0.000000 0.000000 5.658825 -1.459372 12.805924 -7.243049 3.233022 3.943279 -6.120955 10.243060 -0.576207 7.106344 -1.343420 -14.525602 0.000000 0.000000 0.000000 -33.272561 -13.485715 -4.738483 -44.232807 -8.082936 1.269927 -17.736197 -48.585080 6.685102 0.000000 0.000000 0.000000 28.002554 1.569845 6.132296 50.713112 9.198990 -2.909773 -0.777254 25.415676 1.424497 0.000000 0.000000 0.000000 
-0.815594 0.938267 2.596791 -5.647696 21.597191 -6.610214 2.860730 -1.718294 -17.803800 2.043030 -5.902639 38.022202 -0.023766 4.534814 7.439030 0.000000 0.000000 0.000000 3.103680 -0.725453 5.051868 -2.284569 0.526958 12.889554 4.198812 9.926617 2.368965 0.000000 0.000000 0.000000 5.280154 -1.477295 13.055315 -6.819967 3.080383 1.995090 -5.881213 13.581464 0.483352 8.218878 -1.207110 -16.392063 0.000000 0.000000 0.000000 -32.618263 -13.335960 -6.504124 -43.455771 -2.115304 -0.407851 -10.052921 -36.185498 2.397227 0.000000 0.000000 0.000000 29.167354 2.087394 8.341410 47.654263 16.434900 -0.889594 -4.001599 24.652459 0.811411 0.000000 0.000000 0.000000 
-0.811740 0.936786 2.620877 -4.834822 22.556938 -5.943843 3.280491 -2.042397 -20.298433 1.197424 -2.782042 24.308379 2.134829 13.062148 19.344704 0.000000 0.000000 0.000000 3.440315 -1.005001 6.582023 -2.933723 0.676572 12.429992 3.055409 7.501383 1.469275 0.000000 0.000000 0.000000 4.919570 -1.484934 13.285563 -6.885597 3.054894 2.567552 -4.910529 15.605774 -0.339874 7.574079 -0.451603 -17.102541 0.000000 0.000000 0.000000 -32.745593 -11.873270 -8.437226 -41.913726 4.454896 -2.304748 -3.956627 -26.598243 0.509408 0.000000 0.000000 0.000000 28.554956 4.098879 10.427410 44.909785 21.564830 0.704940 -6.906007 25.919249 0.293992 0.000000 0.000000 0.000000 
-0.801667 0.934547 2.646083 -3.706760 23.562651 -4.903606 2.226791 -2.337227 -21.106461 -0.245456 -0.906598 13.084349 2.600294 14.889941 23.068303 0.000000 0.000000 0.000000 3.364067 -1.316874 8.268906 -4.167544 0.961710 11.691068 2.189532 5.576518 0.669660 0.000000 0.000000 0.000000 4.134986 -1.434893 13.523132 -6.988383 3.109057 1.658279 -4.513920 17.478556 -0.885969 8.418754 -0.578889 -17.794628 0.000000 0.000000 0.000000 -30.744966 -9.298945 -10.141361 -40.628191 9.091199 -3.809720 -2.894676 -19.467174 0.249198 0.000000 0.000000 0.000000 29.700542 3.428057 11.166783 41.643697 27.522836 2.083900 -8.978116 26.705174 -0.068056 0.000000 0.000000 0.000000 
